<svg width="20" height="20" viewBox="0 0 20 20" fill="none" xmlns="http://www.w3.org/2000/svg">
<mask id="path-1-inside-1_1021_4201" fill="white">
<path d="M9 0H11V20H9V0Z"/>
</mask>
<path d="M9 0V-1H8V0H9ZM11 0H12V-1H11V0ZM11 20V21H12V20H11ZM9 20H8V21H9V20ZM9 0V1H11V0V-1H9V0ZM11 0H10V20H11H12V0H11ZM11 20V19H9V20V21H11V20ZM9 20H10V0H9H8V20H9Z" fill="#FF4921" mask="url(#path-1-inside-1_1021_4201)"/>
<mask id="path-3-inside-2_1021_4201" fill="white">
<path d="M0 9H20V11H0V9Z"/>
</mask>
<path d="M0 9V8H-1V9H0ZM20 9H21V8H20V9ZM20 11V12H21V11H20ZM0 11H-1V12H0V11ZM0 9V10H20V9V8H0V9ZM20 9H19V11H20H21V9H20ZM20 11V10H0V11V12H20V11ZM0 11H1V9H0H-1V11H0Z" fill="#FF4921" mask="url(#path-3-inside-2_1021_4201)"/>
</svg>
