<svg width="32" height="32" viewBox="0 0 32 32" fill="none" xmlns="http://www.w3.org/2000/svg">
<path d="M13.9298 12.9681C13.9298 13.1874 14.2082 13.2815 14.3412 13.1072L18.1452 8.12296C18.2319 8.00933 18.3667 7.94266 18.5096 7.94266H24.3534C24.7253 7.94266 24.9424 8.36217 24.7276 8.6658L19.7276 15.7353C19.6154 15.8939 19.6154 16.1061 19.7276 16.2647L24.7276 23.3342C24.9424 23.6378 24.7253 24.0574 24.3534 24.0574H18.5201C18.3713 24.0574 18.2317 23.9851 18.1458 23.8636L14.3461 18.4911C14.2171 18.3086 13.9298 18.3999 13.9298 18.6235V23.5989C13.9298 23.8521 13.7245 24.0574 13.4714 24.0574H7.64592C7.39274 24.0574 7.1875 23.8521 7.1875 23.5989V21.7222C7.1875 18.9501 8.44858 16.3286 10.6144 14.5983H7.64593C7.39274 14.5983 7.1875 14.3931 7.1875 14.1399V8.40108C7.1875 8.1479 7.39274 7.94266 7.64592 7.94266H13.4714C13.7245 7.94266 13.9298 8.1479 13.9298 8.40108V12.9681Z" fill="black"/>
</svg>
