<svg width="24" height="24" viewBox="0 0 24 24" fill="none" xmlns="http://www.w3.org/2000/svg">
<g clip-path="url(#clip0_1099_4078)">
<path d="M20.5713 0.571533H3.42843C1.85048 0.571533 0.571289 1.85072 0.571289 3.42868V20.5715C0.571289 22.1495 1.85048 23.4287 3.42843 23.4287H20.5713C22.1492 23.4287 23.4284 22.1495 23.4284 20.5715V3.42868C23.4284 1.85072 22.1492 0.571533 20.5713 0.571533Z" fill="#646463"/>
<path d="M17.7147 12.7212V17.1429H15.2651V13.0172C15.2651 11.9805 14.9106 11.2734 14.0243 11.2734C13.3474 11.2734 12.9444 11.7504 12.7674 12.2112C12.7027 12.376 12.6861 12.6056 12.6861 12.8362V17.1429H10.2354C10.2354 17.1429 10.2686 10.1559 10.2354 9.43138H12.6861V10.5244L12.6701 10.5496H12.6861V10.5244C13.0113 10.0001 13.5925 9.25041 14.8941 9.25041C16.506 9.25041 17.7147 10.353 17.7147 12.7212ZM7.67242 5.71436C6.8347 5.71436 6.28613 6.28961 6.28613 7.04647C6.28613 7.78653 6.81865 8.37916 7.64036 8.37916H7.65636C8.51128 8.37916 9.04208 7.78653 9.04208 7.04647C9.02716 6.28961 8.51128 5.71436 7.67242 5.71436ZM6.43156 17.1429H8.88116V9.43138H6.43156V17.1429Z" fill="#FDFCFB"/>
</g>
<defs>
<clipPath id="clip0_1099_4078">
<rect width="24" height="24" fill="white"/>
</clipPath>
</defs>
</svg>
