<svg width="31" height="31" viewBox="0 0 31 31" fill="none" xmlns="http://www.w3.org/2000/svg">
<path d="M26.6667 0H3.80952C1.70558 0 0 1.70558 0 3.80952V26.6667C0 28.7706 1.70558 30.4762 3.80952 30.4762H26.6667C28.7706 30.4762 30.4762 28.7706 30.4762 26.6667V3.80952C30.4762 1.70558 28.7706 0 26.6667 0Z" fill="#646463"/>
<path d="M15.2383 5.06134C17.9374 5.06134 20.526 6.13322 22.4346 8.04181C24.3432 9.95039 25.415 12.539 25.415 15.2381C25.415 17.9372 24.3432 20.5258 22.4346 22.4344C20.526 24.343 17.9374 25.4149 15.2383 25.4149C12.5391 25.4149 9.95058 24.343 8.04199 22.4344C6.13341 20.5258 5.06152 17.9372 5.06152 15.2381C5.06152 12.539 6.13341 9.95039 8.04199 8.04181C9.95058 6.13322 12.5391 5.06134 15.2383 5.06134ZM16.7031 16.7762C13.3497 17.9469 10.9897 20.226 10.082 22.0115C12.5716 23.9157 15.7879 24.2287 18.4883 23.1111C18.3445 22.276 17.8452 19.7628 16.7031 16.7762ZM23.6191 16.6873C23.1115 16.535 20.9552 15.9686 18.5098 16.3338C19.5235 19.1432 19.9794 21.4617 20.1133 22.2137C21.9345 20.9369 23.2296 18.9635 23.6191 16.6873ZM15.4297 13.8807C11.3955 15.0731 7.49349 15.0985 6.73535 15.0867V15.2508C6.73538 17.3874 7.52766 19.3386 8.83203 20.8387C10.2472 18.4972 13.0008 16.0582 16.0449 15.1619C15.8544 14.7325 15.6451 14.3071 15.4297 13.8807ZM21.9014 9.97052C21.5264 10.4399 20.0876 12.0598 17.2314 13.2537C17.4996 13.8062 17.7037 14.2724 17.915 14.784C20.5299 14.4711 23.1076 14.919 23.7441 15.0457C23.6989 13.1277 23.0192 11.3696 21.9014 9.97052ZM11.5469 7.58771C9.23702 8.70133 7.5144 10.8298 6.93848 13.3875C7.68249 13.3892 10.9347 13.3304 14.6191 12.3699C13.2905 10.0334 11.8876 8.05742 11.5469 7.58771ZM20.8076 8.82794C18.7605 7.05154 16.0135 6.36261 13.3916 6.95001C13.8045 7.51345 15.1973 9.46214 16.4785 11.7996C19.2297 10.7439 20.5104 9.21931 20.8076 8.82794Z" fill="white" stroke="white" stroke-width="0.2"/>
</svg>
