<svg width="24" height="24" viewBox="0 0 24 24" fill="none" xmlns="http://www.w3.org/2000/svg">
<g clip-path="url(#clip0_1099_4081)">
<path d="M20.5713 0.571533H3.42843C1.85048 0.571533 0.571289 1.85072 0.571289 3.42868V20.5715C0.571289 22.1495 1.85048 23.4287 3.42843 23.4287H20.5713C22.1492 23.4287 23.4284 22.1495 23.4284 20.5715V3.42868C23.4284 1.85072 22.1492 0.571533 20.5713 0.571533Z" fill="#646463"/>
<path d="M8.70861 6.9502C9.19872 6.9502 9.65158 6.98722 10.0673 7.09831C10.4819 7.17237 10.8232 7.32682 11.1262 7.51191C11.4292 7.69705 11.6546 7.96254 11.8076 8.30214C11.9565 8.64065 12.0373 9.05425 12.0373 9.50488C12.0373 10.0296 11.9246 10.4802 11.6588 10.8187C11.4303 11.1572 11.0571 11.4597 10.5988 11.6829C11.2431 11.8691 11.7332 12.2076 12.032 12.6583C12.3307 13.1089 12.5221 13.6706 12.5221 14.3116C12.5221 14.8363 12.4104 15.2869 12.2191 15.6635C12.0289 16.0431 11.7423 16.3665 11.3877 16.6018C11.0475 16.8293 10.6318 17.0144 10.1789 17.1265C9.73535 17.2434 9.27907 17.3059 8.82021 17.3127L3.76074 17.3201V6.9502H8.70861ZM8.40558 11.1583C8.82021 11.1583 9.16044 11.0472 9.42301 10.8568C9.68455 10.6664 9.80044 10.3311 9.80044 9.91848C9.80044 9.68997 9.76324 9.46785 9.68884 9.31871C9.60758 9.16797 9.49084 9.03917 9.34861 8.94317C9.19461 8.859 9.0297 8.79637 8.8585 8.757C8.67141 8.71997 8.48004 8.71997 8.2557 8.71997H6.06775V11.1636C6.06775 11.1583 8.40558 11.1583 8.40558 11.1583ZM8.51724 15.5937C8.74581 15.5937 8.97015 15.5567 9.16152 15.5197C9.34861 15.4827 9.53998 15.4075 9.68884 15.2912C9.83764 15.1748 9.95461 15.0637 10.0673 14.8786C10.1417 14.6924 10.2162 14.465 10.2162 14.2005C10.2162 13.6759 10.0673 13.2993 9.76324 13.0348C9.46027 12.8074 9.04455 12.6963 8.55444 12.6963H6.06775V15.5884H8.51832L8.51724 15.5937ZM15.8083 15.5567C16.1116 15.8578 16.5645 16.008 17.167 16.0073C17.5816 16.0073 17.96 15.8952 18.2641 15.7048C18.566 15.4791 18.7539 15.2535 18.8276 15.0278H20.6774C20.3734 15.928 19.9205 16.5691 19.3187 16.9827C18.717 17.3582 17.9972 17.5814 17.1287 17.5814C16.5732 17.5847 16.0222 17.4824 15.5052 17.2799C15.0393 17.1088 14.6238 16.8244 14.2964 16.4527C13.9465 16.1069 13.6867 15.6813 13.5395 15.2129C13.3535 14.7252 13.2738 14.2005 13.2738 13.5965C13.2738 13.0348 13.3482 12.5049 13.5395 12.0172C13.7309 11.5306 13.9924 11.1159 14.3337 10.7404C14.6739 10.4019 15.0896 10.0993 15.5425 9.91317C16.0474 9.71265 16.5862 9.61031 17.1298 9.61168C17.774 9.61168 18.3386 9.72277 18.8286 9.98722C19.3177 10.2517 19.6972 10.55 20.0002 11.0007C20.3032 11.4132 20.5275 11.9008 20.6817 12.4266C20.7561 12.9513 20.7933 13.4802 20.7561 14.08H15.281C15.281 14.6935 15.5042 15.2541 15.8083 15.5567ZM18.1897 11.6089C17.9239 11.3444 17.5071 11.1953 17.0171 11.1953C16.6768 11.1953 16.4153 11.2693 16.1867 11.3815C15.9582 11.4936 15.8083 11.6459 15.6594 11.794C15.5206 11.9393 15.4282 12.1223 15.3936 12.3197C15.3554 12.5049 15.3192 12.6583 15.3192 12.8064H18.717C18.6426 12.2499 18.4523 11.8733 18.1897 11.6089ZM14.8652 7.66528H19.0944V8.67762H14.8652V7.66528Z" fill="white"/>
</g>
<defs>
<clipPath id="clip0_1099_4081">
<rect width="24" height="24" fill="white"/>
</clipPath>
</defs>
</svg>
